<?xml version="1.0" standalone="no"?>
<!DOCTYPE svg PUBLIC "-//W3C//DTD SVG 20010904//EN"
 "http://www.w3.org/TR/2001/REC-SVG-20010904/DTD/svg10.dtd">
<svg version="1.0" xmlns="http://www.w3.org/2000/svg"
 width="1376.000000pt" height="1376.000000pt" viewBox="0 0 1376.000000 1376.000000"
 preserveAspectRatio="xMidYMid meet">
<metadata>
Created by potrace 1.14, written by Peter Selinger 2001-2017
</metadata>
<g transform="translate(0.000000,1376.000000) scale(0.100000,-0.100000)"
fill="#000000" stroke="none">
<path d="M9318 11035 c-2 -1 -21 -5 -43 -9 -70 -10 -129 -22 -205 -41 -3 -1
-18 -7 -35 -14 -16 -7 -38 -13 -47 -14 -10 -1 -18 -5 -18 -9 0 -4 -6 -8 -14
-8 -27 0 -202 -95 -285 -155 -102 -73 -247 -215 -296 -287 -96 -144 -145 -229
-145 -251 0 -7 -5 -18 -12 -25 -6 -6 -13 -17 -15 -24 -1 -7 -14 -46 -27 -86
-29 -83 -53 -193 -63 -284 -8 -77 -7 -250 1 -300 3 -21 8 -55 11 -75 8 -58 56
-222 82 -283 32 -74 69 -146 81 -158 7 -8 10 -18 7 -23 -4 -5 -2 -9 2 -9 5 0
17 -15 27 -32 60 -105 219 -271 346 -362 118 -85 297 -173 410 -202 69 -17
109 -26 130 -30 14 -3 36 -7 50 -9 14 -3 63 -7 110 -10 47 -3 123 -7 170 -10
83 -5 130 -10 180 -20 14 -3 40 -8 58 -11 18 -3 35 -10 38 -15 3 -5 9 -7 14
-4 22 14 262 -94 375 -168 82 -54 201 -156 255 -219 25 -28 52 -59 61 -68 33
-35 129 -189 162 -262 36 -77 96 -248 102 -290 2 -13 6 -33 9 -45 29 -125 24
-388 -9 -528 -9 -38 -19 -81 -21 -95 -18 -89 -163 -386 -195 -398 -5 -2 -9
-10 -9 -17 0 -7 -7 -15 -15 -19 -8 -3 -15 -12 -15 -19 0 -37 -295 -302 -357
-321 -13 -4 -23 -11 -23 -15 0 -7 -133 -73 -205 -102 -50 -20 -172 -54 -230
-64 -16 -3 -43 -7 -60 -10 -16 -3 -77 -8 -135 -11 -138 -6 -216 -12 -265 -20
-22 -4 -47 -8 -55 -9 -37 -6 -81 -16 -103 -24 -14 -6 -28 -7 -31 -4 -3 4 -6 2
-6 -4 0 -5 -6 -10 -14 -10 -39 0 -306 -127 -306 -146 0 -5 -3 -8 -6 -4 -10 9
-159 -108 -233 -183 -94 -94 -171 -198 -235 -313 -28 -52 -83 -180 -86 -202 0
-3 -7 -23 -15 -45 -16 -45 -44 -174 -51 -235 -7 -58 -6 -296 1 -325 4 -14 7
-32 7 -40 0 -33 50 -222 74 -281 105 -260 264 -464 485 -622 37 -26 71 -47 77
-47 6 0 12 -3 14 -7 4 -11 168 -95 168 -87 0 3 10 0 23 -8 39 -25 202 -69 307
-84 75 -10 324 -10 385 0 28 5 57 10 65 11 8 1 22 4 30 7 8 3 47 13 85 22 39
10 84 24 100 31 120 54 147 65 155 65 6 0 10 3 10 8 0 4 18 15 40 26 64 31
217 151 293 231 74 77 147 167 147 181 0 4 8 17 19 28 36 40 142 263 155 329
2 6 6 19 9 27 26 63 46 206 51 370 3 85 13 200 21 240 3 14 34 145 39 165 19
71 130 306 148 313 4 2 8 8 8 13 0 8 55 87 95 137 22 27 153 158 186 186 41
35 194 136 205 136 4 0 15 7 25 16 9 8 23 17 31 18 7 1 29 9 48 19 80 37 193
73 290 91 14 3 35 7 47 10 13 3 62 7 110 10 271 17 335 22 341 26 2 3 6 4 54
13 21 5 39 8 40 7 2 0 28 8 58 18 30 11 58 20 62 21 9 2 89 36 138 59 19 9 64
33 99 54 34 21 67 38 71 38 4 0 10 7 14 15 3 8 10 15 15 15 18 0 196 167 262
246 100 118 207 326 250 484 18 66 20 73 24 97 1 11 6 29 9 40 16 55 24 276
12 385 -19 188 -99 411 -208 579 -23 35 -45 66 -50 67 -4 2 -8 7 -8 12 0 21
-154 179 -245 251 -38 31 -98 72 -132 93 -97 57 -265 132 -318 141 -11 2 -20
4 -20 5 0 1 -8 3 -19 5 -10 2 -39 8 -65 14 -91 21 -106 22 -351 35 -110 6
-136 10 -211 27 -26 6 -53 12 -60 13 -35 7 -75 19 -84 26 -5 4 -23 10 -40 14
-46 11 -193 83 -267 132 -121 79 -260 204 -323 290 -11 15 -24 32 -30 38 -22
25 -55 76 -55 86 0 5 -4 10 -8 10 -10 0 -112 203 -112 222 0 8 -4 18 -8 24
-12 14 -45 123 -58 188 -13 71 -26 197 -30 300 -2 67 -6 135 -9 151 -9 55 -15
90 -21 115 -3 14 -8 36 -11 49 -6 33 -40 138 -60 181 -43 97 -79 168 -100 196
-13 17 -23 34 -23 38 0 13 -114 151 -176 213 -35 33 -89 81 -121 105 -32 23
-60 45 -63 49 -8 9 -121 75 -176 103 -95 47 -256 100 -336 111 -18 3 -44 8
-58 11 -25 6 -336 15 -342 9z"/>
<path d="M1190 8321 c0 -3 -10 -6 -22 -7 -51 -1 -199 -34 -243 -54 -11 -4 -42
-16 -70 -26 -27 -10 -53 -23 -57 -28 -4 -6 -8 -8 -8 -3 0 12 -126 -59 -215
-121 -106 -75 -262 -228 -323 -318 -77 -115 -118 -191 -162 -305 -25 -63 -23
-53 -56 -189 -46 -187 -41 -457 12 -640 8 -30 19 -68 23 -85 12 -44 78 -189
113 -248 68 -116 114 -174 228 -287 187 -187 438 -320 690 -365 19 -4 49 -9
65 -12 77 -14 381 -6 450 11 11 3 49 12 84 21 100 24 265 91 304 124 9 8 17
11 17 6 0 -4 15 4 34 19 19 14 39 26 45 26 6 0 11 4 11 8 0 4 15 16 33 27 44
26 46 28 155 136 96 94 152 155 152 164 0 3 16 28 36 56 58 83 129 232 163
343 23 76 28 95 47 201 10 54 10 340 1 390 -4 22 -12 67 -18 100 -6 33 -14 64
-17 70 -4 5 -8 19 -9 30 -2 11 -6 27 -10 35 -3 8 -7 20 -8 25 -2 9 -16 40 -58
135 -21 46 -124 214 -153 250 -55 67 -255 260 -269 260 -3 0 -26 15 -52 34
-60 42 -226 128 -275 141 -5 2 -10 4 -13 5 -3 1 -8 3 -12 5 -5 1 -15 4 -23 7
-59 21 -151 42 -235 55 -47 8 -355 11 -355 4z"/>
<path d="M6618 8325 c-2 -2 -23 -6 -48 -9 -25 -3 -56 -9 -70 -12 -14 -3 -38
-8 -55 -11 -16 -2 -35 -9 -41 -14 -6 -5 -13 -7 -16 -4 -10 10 -160 -49 -263
-102 -78 -41 -90 -48 -95 -53 -3 -3 -35 -27 -73 -53 -143 -101 -310 -293 -389
-447 -18 -36 -36 -66 -40 -68 -5 -2 -8 -12 -8 -21 0 -10 -3 -21 -7 -25 -5 -4
-8 -11 -8 -14 -1 -4 -11 -34 -24 -67 -12 -33 -24 -67 -26 -75 -40 -177 -46
-219 -50 -349 -3 -88 -10 -185 -20 -261 -1 -8 -4 -24 -8 -35 -3 -11 -9 -33
-12 -50 -7 -33 -9 -43 -18 -65 -3 -8 -11 -33 -18 -55 -7 -22 -19 -56 -27 -75
-9 -19 -16 -37 -17 -40 -14 -49 -106 -199 -174 -285 -55 -69 -199 -215 -213
-215 -4 0 -13 -6 -20 -13 -30 -29 -96 -75 -140 -97 -27 -14 -48 -28 -48 -32 0
-5 -7 -8 -15 -8 -9 0 -27 -7 -40 -16 -13 -9 -30 -17 -37 -18 -7 -2 -35 -13
-61 -24 -27 -12 -58 -24 -70 -27 -12 -2 -46 -11 -76 -20 -30 -8 -66 -17 -80
-19 -14 -2 -26 -5 -26 -6 0 -4 -55 -8 -165 -14 -145 -8 -225 -14 -270 -21 -19
-3 -47 -8 -61 -10 -35 -5 -144 -33 -172 -45 -24 -9 -48 -17 -60 -19 -13 -2
-151 -73 -212 -109 -158 -94 -315 -244 -425 -406 -50 -73 -124 -223 -145 -291
-10 -33 -23 -66 -28 -72 -5 -7 -7 -13 -3 -13 3 0 2 -10 -3 -23 -5 -13 -12 -39
-15 -58 -3 -19 -8 -45 -11 -59 -19 -86 -24 -273 -11 -395 9 -87 43 -234 58
-252 6 -7 8 -13 5 -13 -3 0 8 -34 24 -75 96 -251 276 -472 514 -632 151 -101
400 -195 544 -205 23 -2 41 -6 41 -9 0 -3 72 -6 160 -5 88 0 160 3 160 6 0 4
10 6 23 5 12 -1 47 4 78 11 31 7 67 15 80 17 13 3 51 15 84 27 33 12 65 22 70
24 41 9 273 136 307 169 7 7 30 25 51 40 93 70 247 249 315 367 80 137 141
309 166 465 8 50 14 97 15 105 0 37 11 240 16 285 6 58 18 117 40 195 9 30 17
60 18 65 11 44 85 206 119 260 84 132 103 155 205 260 116 119 207 186 348
256 83 41 203 91 215 89 3 -1 18 4 34 10 16 6 44 13 64 16 19 3 43 8 53 10 11
2 29 6 42 9 21 5 87 9 282 19 86 5 187 18 230 30 6 1 30 8 55 15 25 8 50 14
55 16 41 9 236 95 253 112 6 6 21 15 32 18 11 3 20 11 20 16 0 5 5 9 12 9 15
0 140 96 204 157 72 68 158 174 211 258 216 346 265 782 131 1165 -32 90 -96
225 -128 271 -11 15 -20 30 -20 33 0 7 -6 14 -86 111 -82 99 -197 208 -241
228 -13 6 -23 14 -23 19 0 4 -16 16 -35 25 -19 9 -35 20 -35 25 0 4 -6 8 -14
8 -8 0 -22 8 -32 18 -10 9 -19 16 -21 15 -2 -2 -30 10 -63 26 -33 16 -60 27
-60 24 0 -3 -6 -1 -13 5 -12 10 -90 39 -128 48 -11 2 -28 6 -39 8 -11 3 -24 7
-28 10 -6 4 -55 13 -117 22 -11 1 -20 3 -20 5 0 3 -313 7 -317 4z"/>
</g>
</svg>
