<svg width="133" height="20" viewBox="0 0 133 20" fill="none" xmlns="http://www.w3.org/2000/svg">
<path d="M45.6063 6.81864H43.92V12.4069H42.9396V6.81864H41.2729V5.99512H45.6063V6.81864Z" fill="#979DA7"/>
<path d="M50.7044 12.407H49.7828V9.36775C49.7828 9.03441 49.7044 8.77951 49.5279 8.60304C49.3514 8.42657 49.1358 8.32853 48.8613 8.32853C48.5475 8.32853 48.273 8.44618 48.0181 8.68147C47.7828 8.91677 47.6456 9.28932 47.6456 9.77951V12.3874H46.724V5.66187H47.6456V8.38735C47.9201 7.79912 48.4103 7.4854 49.1358 7.4854C49.6064 7.4854 49.9789 7.62265 50.273 7.91677C50.5671 8.21089 50.7044 8.62265 50.7044 9.13246V12.407Z" fill="#979DA7"/>
<path d="M53.3318 6.11282C53.3318 6.26968 53.273 6.40693 53.1553 6.52458C53.0377 6.64223 52.9004 6.70106 52.7436 6.70106C52.5867 6.70106 52.4494 6.64223 52.3318 6.54419C52.2141 6.42654 52.1749 6.28929 52.1749 6.13242C52.1749 5.97556 52.2338 5.8187 52.3318 5.72066C52.4494 5.60302 52.5867 5.54419 52.7436 5.54419C52.9004 5.54419 53.0573 5.60302 53.1553 5.72066C53.273 5.8187 53.3318 5.95596 53.3318 6.11282ZM53.2141 12.4069H52.273V7.58341H53.2141V12.4069Z" fill="#979DA7"/>
<path d="M58.8023 12.4068H57.8808V9.36763C57.8808 9.03429 57.8023 8.77939 57.6259 8.60292C57.4494 8.42645 57.2337 8.32841 56.9592 8.32841C56.6259 8.32841 56.3514 8.46567 56.1161 8.72057C55.8808 8.97547 55.7631 9.32841 55.7631 9.799V12.4068H54.8416V7.58332H55.7631V8.40684C56.0572 7.81861 56.5474 7.50488 57.2729 7.50488C57.7435 7.50488 58.1161 7.64214 58.4102 7.93626C58.6847 8.23038 58.8219 8.62253 58.8219 9.13234V12.4068H58.8023Z" fill="#979DA7"/>
<path d="M61.2534 12.4068H60.3318V5.75977H61.2534V12.4068ZM62.371 9.89702L64.2534 12.4068H63.1357L61.2926 9.89702L63.1161 7.6029H64.2141L62.371 9.89702Z" fill="#979DA7"/>
<path d="M66.0573 11.3874C66.175 11.5051 66.2338 11.6619 66.2338 11.8384C66.2338 12.0149 66.175 12.1717 66.0573 12.2894C65.9397 12.407 65.7828 12.4854 65.6063 12.4854C65.4299 12.4854 65.273 12.4266 65.1554 12.2894C65.0377 12.1717 64.9789 12.0149 64.9789 11.8384C64.9789 11.6619 65.0377 11.5051 65.1554 11.3874C65.273 11.2698 65.4299 11.2109 65.6063 11.2109C65.7828 11.2109 65.9397 11.2698 66.0573 11.3874Z" fill="#979DA7"/>
<path d="M74.7239 12.0933C74.3317 12.3482 73.7827 12.4855 73.0964 12.4855C72.1356 12.4855 71.3513 12.1913 70.7435 11.5835C70.1356 10.9953 69.8219 10.1913 69.8219 9.19133C69.8219 8.23055 70.1356 7.42662 70.7435 6.81878C71.3513 6.21094 72.1356 5.89722 73.0572 5.89722C73.7435 5.89722 74.2925 6.01486 74.7042 6.25016V7.21094C74.4297 7.05408 74.1748 6.95604 73.9395 6.89722C73.7239 6.83839 73.4297 6.79918 73.0768 6.79918C72.4297 6.79918 71.9003 7.01486 71.469 7.44624C71.0376 7.87761 70.8219 8.44623 70.8219 9.17172C70.8219 9.89721 71.0376 10.4855 71.4493 10.9168C71.8807 11.3482 72.4297 11.5639 73.1356 11.5639C73.7435 11.5639 74.2729 11.407 74.6846 11.0933V12.0933H74.7239Z" fill="#979DA7"/>
<path d="M80.0378 12.407H79.1162V9.36775C79.1162 9.03441 79.0378 8.77951 78.8613 8.60304C78.6848 8.42657 78.4691 8.32853 78.1946 8.32853C77.8809 8.32853 77.6064 8.44618 77.3515 8.68147C77.1162 8.91677 76.9789 9.28932 76.9789 9.77951V12.3874H76.0574V5.66187H76.9789V8.38735C77.2535 7.79912 77.7436 7.4854 78.4691 7.4854C78.9397 7.4854 79.3123 7.62265 79.6064 7.91677C79.9005 8.21089 80.0378 8.62265 80.0378 9.13246V12.407Z" fill="#979DA7"/>
<path d="M84.1357 11.8384C83.8808 12.2501 83.4494 12.4462 82.8416 12.4462C82.3906 12.4462 82.0181 12.309 81.7436 12.0541C81.469 11.7992 81.3318 11.4658 81.3318 11.0541C81.3318 10.5835 81.5083 10.2305 81.8612 9.97564C82.2141 9.72074 82.7043 9.58348 83.3318 9.58348H84.1357V9.30897C84.1357 8.97564 84.0573 8.74035 83.9004 8.56388C83.7436 8.38741 83.4887 8.30897 83.1161 8.30897C82.6063 8.30897 82.1357 8.44623 81.7239 8.74035V7.83838C82.0965 7.6227 82.5867 7.52466 83.2141 7.52466C84.469 7.52466 85.0965 8.1325 85.0965 9.36779V12.4266H84.1749V11.8384H84.1357ZM83.1161 11.7207C83.4298 11.7207 83.6651 11.6423 83.8416 11.4658C84.0181 11.2894 84.0965 11.0737 84.0965 10.7992V10.2501H83.371C83.0181 10.2501 82.7436 10.3286 82.5671 10.4658C82.3906 10.6031 82.2926 10.7796 82.2926 10.9952C82.2926 11.2109 82.371 11.3874 82.5083 11.5247C82.6455 11.6619 82.8612 11.7207 83.1161 11.7207Z" fill="#979DA7"/>
<path d="M90.5475 12.4068H89.6259V9.36763C89.6259 9.03429 89.5475 8.77939 89.371 8.60292C89.1945 8.42645 88.9788 8.32841 88.7043 8.32841C88.371 8.32841 88.0965 8.46567 87.8612 8.72057C87.6259 8.97547 87.5082 9.32841 87.5082 9.799V12.4068H86.5867V7.58332H87.5082V8.40684C87.8024 7.81861 88.2926 7.50488 89.018 7.50488C89.4886 7.50488 89.8612 7.64214 90.1553 7.93626C90.4298 8.23038 90.5671 8.62253 90.5671 9.13234V12.4068H90.5475Z" fill="#979DA7"/>
<path d="M96.1357 11.9952C96.1357 12.7403 95.9201 13.2893 95.5083 13.6814C95.0965 14.054 94.5475 14.2501 93.8808 14.2501C93.2534 14.2501 92.7436 14.152 92.3122 13.9363V12.9952C92.724 13.2697 93.2142 13.3873 93.7828 13.3873C94.724 13.3873 95.1946 12.9167 95.1946 11.9952V11.505C94.8808 12.0344 94.4103 12.2893 93.8024 12.2893C93.2534 12.2893 92.7828 12.0932 92.4103 11.6814C92.0181 11.2697 91.822 10.7011 91.822 9.97556C91.822 9.26968 91.9985 8.68144 92.371 8.23046C92.724 7.77948 93.2142 7.54419 93.8024 7.54419C94.4495 7.54419 94.9005 7.8187 95.1946 8.36772V7.62262H96.1161V11.9952H96.1357ZM92.8024 9.95595C92.8024 10.4658 92.9201 10.8383 93.1554 11.0932C93.3906 11.3481 93.6652 11.4854 93.9789 11.4854C94.3122 11.4854 94.5867 11.3481 94.8416 11.0932C95.0769 10.8383 95.2142 10.4854 95.2142 10.0148C95.2142 9.44615 95.0965 9.01478 94.8612 8.75988C94.6259 8.48537 94.3514 8.34811 94.0181 8.34811C93.6456 8.34811 93.3514 8.50497 93.1357 8.79909C92.9201 9.0736 92.8024 9.46576 92.8024 9.95595Z" fill="#979DA7"/>
<path d="M101.234 12.152C100.881 12.3481 100.41 12.4658 99.822 12.4658C99.0769 12.4658 98.4886 12.2501 98.0376 11.7991C97.5867 11.3481 97.371 10.7599 97.371 10.0344C97.371 9.26968 97.5671 8.66184 97.9788 8.21086C98.3906 7.75987 98.9004 7.54419 99.5278 7.54419C100.136 7.54419 100.626 7.74027 100.998 8.11282C101.351 8.50497 101.547 9.05399 101.547 9.77948C101.547 9.97556 101.528 10.1912 101.489 10.3873H98.3318C98.3906 10.7991 98.5671 11.1324 98.8612 11.3481C99.1553 11.5638 99.5278 11.6814 99.9592 11.6814C100.469 11.6814 100.9 11.5638 101.234 11.3285V12.152ZM99.5671 8.30889C99.2533 8.30889 98.9788 8.42654 98.7435 8.66184C98.5082 8.89713 98.371 9.23046 98.3122 9.66183H100.645V9.48537C100.626 9.13242 100.528 8.83831 100.351 8.62262C100.175 8.40693 99.9004 8.30889 99.5671 8.30889Z" fill="#979DA7"/>
<path d="M103.626 11.3874C103.743 11.5051 103.802 11.6619 103.802 11.8384C103.802 12.0149 103.743 12.1717 103.626 12.2894C103.508 12.407 103.351 12.4854 103.175 12.4854C102.998 12.4854 102.841 12.4266 102.724 12.2894C102.606 12.1717 102.547 12.0149 102.547 11.8384C102.547 11.6619 102.606 11.5051 102.724 11.3874C102.841 11.2698 102.998 11.2109 103.175 11.2109C103.351 11.2109 103.508 11.2698 103.626 11.3874Z" fill="#979DA7"/>
<path d="M112.802 11.8774C112.253 12.2696 111.567 12.4853 110.724 12.4853C109.724 12.4853 108.92 12.1912 108.312 11.6029C107.704 11.0147 107.391 10.2108 107.391 9.19117C107.391 8.21077 107.704 7.40686 108.312 6.79901C108.92 6.19117 109.704 5.87744 110.665 5.87744C111.41 5.87744 112.018 6.0147 112.528 6.30882V7.30881C111.979 6.97548 111.371 6.79901 110.704 6.79901C110.018 6.79901 109.469 7.0147 109.038 7.44607C108.626 7.87744 108.41 8.46567 108.41 9.17156C108.41 9.89705 108.626 10.4853 109.038 10.9167C109.449 11.348 110.018 11.5441 110.744 11.5441C111.116 11.5441 111.489 11.4657 111.822 11.3284V9.56371H110.528V8.72058H112.802V11.799V11.8774Z" fill="#979DA7"/>
<path d="M115.273 12.407H114.351V7.58349H115.273V8.42662C115.508 7.83838 115.92 7.52466 116.528 7.52466C116.626 7.52466 116.724 7.52466 116.822 7.54427V8.46584C116.685 8.40701 116.547 8.3874 116.371 8.3874C116.057 8.3874 115.783 8.52466 115.567 8.81878C115.351 9.1129 115.253 9.44623 115.253 9.83839V12.407H115.273Z" fill="#979DA7"/>
<path d="M121.547 8.23054C121.939 8.70113 122.155 9.28937 122.155 10.0149C122.155 10.7403 121.959 11.3286 121.547 11.7992C121.136 12.2698 120.567 12.5051 119.861 12.5051C119.155 12.5051 118.587 12.2698 118.194 11.8188C117.783 11.3482 117.587 10.7796 117.587 10.0541C117.587 9.32858 117.802 8.74035 118.214 8.25015C118.626 7.77956 119.175 7.52466 119.861 7.52466C120.587 7.52466 121.155 7.75995 121.547 8.23054ZM118.528 10.0149C118.528 10.4854 118.645 10.8972 118.881 11.2109C119.116 11.5443 119.43 11.7011 119.841 11.7011C120.273 11.7011 120.606 11.5443 120.822 11.2305C121.038 10.9168 121.155 10.5051 121.155 10.0149C121.155 9.50505 121.057 9.11289 120.841 8.77956C120.626 8.46583 120.292 8.30897 119.841 8.30897C119.43 8.30897 119.116 8.46583 118.881 8.79917C118.645 9.1325 118.528 9.52466 118.528 10.0149Z" fill="#979DA7"/>
<path d="M125.548 12.4069H124.489L122.979 7.58333H123.959L124.41 9.17156C124.548 9.68136 124.685 10.1323 124.783 10.5049C124.881 10.8971 124.94 11.152 124.979 11.2892L125.018 11.4853C125.097 11.0931 125.312 10.3088 125.646 9.15196L126.116 7.56372H127.018L127.489 9.15196C127.646 9.68137 127.763 10.1323 127.881 10.5245C127.979 10.9167 128.057 11.1716 128.097 11.3088L128.136 11.5049C128.214 11.1323 128.43 10.348 128.783 9.17156L129.253 7.58333H130.195L128.665 12.4069H127.606L127.155 10.8382C127.018 10.348 126.9 9.93627 126.802 9.56372C126.704 9.19117 126.646 8.93627 126.606 8.79901L126.567 8.60293C126.469 9.0147 126.293 9.7598 125.979 10.8186L125.548 12.4069Z" fill="#979DA7"/>
<path d="M131.998 11.3874C132.116 11.5051 132.175 11.6619 132.175 11.8384C132.175 12.0149 132.116 12.1717 131.998 12.2894C131.881 12.407 131.724 12.4854 131.547 12.4854C131.371 12.4854 131.214 12.4266 131.096 12.2894C130.979 12.1717 130.92 12.0149 130.92 11.8384C130.92 11.6619 130.979 11.5051 131.096 11.3874C131.214 11.2698 131.371 11.2109 131.547 11.2109C131.724 11.2109 131.881 11.2698 131.998 11.3874Z" fill="#979DA7"/>
<path d="M16.6276 13.3334C14.7844 13.3334 13.2942 14.8236 13.2942 16.6667C13.2942 18.5099 11.804 20.0001 9.9609 20.0001C8.11776 20.0001 6.62756 18.5099 6.62756 16.6667C6.62756 14.8236 8.11776 13.3334 9.9609 13.3334C11.804 13.3334 13.2942 11.8432 13.2942 10.0001C13.2942 8.15694 14.7844 6.66675 16.6276 6.66675C18.4707 6.66675 19.9609 8.15694 19.9609 10.0001C19.9609 11.8432 18.4707 13.3334 16.6276 13.3334Z" fill="#979DA7"/>
<path d="M29.9412 13.3333C28.098 13.3333 26.6078 14.8235 26.6078 16.6667C26.6078 18.5098 25.1176 20 23.2745 20C21.4314 20 19.9412 18.5098 19.9412 16.6667C19.9412 14.8235 21.4314 13.3333 23.2745 13.3333C25.1176 13.3333 26.6078 11.8431 26.6078 10C26.6078 8.15686 25.1176 6.66667 23.2745 6.66667C21.4314 6.66667 19.9412 5.17647 19.9412 3.33333C19.9412 1.4902 21.4314 0 23.2745 0C25.1176 0 26.6078 1.4902 26.6078 3.33333C26.6078 5.17647 28.098 6.66667 29.9412 6.66667C31.7843 6.66667 33.2745 8.15686 33.2745 10C33.2549 11.8431 31.7647 13.3333 29.9412 13.3333Z" fill="#979DA7"/>
<path d="M3.33333 13.3334C5.17428 13.3334 6.66667 11.841 6.66667 10.0001C6.66667 8.15913 5.17428 6.66675 3.33333 6.66675C1.49238 6.66675 0 8.15913 0 10.0001C0 11.841 1.49238 13.3334 3.33333 13.3334Z" fill="#979DA7"/>
</svg>
