<svg width="20" height="20" viewBox="0 0 20 20" fill="none" xmlns="http://www.w3.org/2000/svg">
<path fill-rule="evenodd" clip-rule="evenodd" d="M14.0284 3.08657C13.7646 2.93254 13.4912 2.79318 13.2093 2.6696L12.7973 0.786304C12.6969 0.32722 12.2904 0 11.8204 0H8.18021C7.71027 0 7.30373 0.32722 7.20331 0.786304L6.79134 2.6696C6.52567 2.78606 6.26755 2.91655 6.0179 3.06011C5.75584 3.21016 5.50151 3.37551 5.25639 3.55576L3.41942 2.97089C2.97163 2.82831 2.48498 3.01677 2.25001 3.42375L0.42991 6.57627C0.194941 6.98324 0.275053 7.49893 0.622419 7.81544L2.04741 9.11386C2.01466 9.40919 1.99861 9.70503 1.99888 9.99999C1.99861 10.295 2.01466 10.5908 2.04741 10.8862L0.622418 12.1846C0.275052 12.5011 0.19494 13.0168 0.429909 13.4238L2.25001 16.5763C2.48498 16.9832 2.97163 17.1717 3.41942 17.0291L5.25639 16.4443C5.50423 16.6265 5.76148 16.7935 6.02662 16.9449C6.27356 17.0865 6.52876 17.2153 6.79134 17.3304L7.20331 19.2137C7.30373 19.6728 7.71027 20 8.18021 20H11.8204C12.2904 20 12.6969 19.6728 12.7973 19.2137L13.2093 17.3304C13.488 17.2082 13.7584 17.0706 14.0194 16.9187C14.2684 16.7743 14.5104 16.6161 14.744 16.4443L16.581 17.0291C17.0288 17.1717 17.5154 16.9832 17.7504 16.5763L19.5705 13.4238C19.8055 13.0168 19.7254 12.5011 19.378 12.1846L17.953 10.8862C17.9858 10.5904 18.0019 10.2942 18.0015 9.99888C18.0018 9.70429 17.9857 9.40883 17.953 9.11387L19.378 7.81544C19.7254 7.49893 19.8055 6.98325 19.5705 6.57627L17.7504 3.42375C17.5154 3.01678 17.0288 2.82831 16.581 2.97089L14.744 3.55576C14.5132 3.38604 14.2743 3.22954 14.0284 3.08657ZM10.0002 14C12.2094 14 14.0002 12.2091 14.0002 10C14.0002 7.79086 12.2094 6 10.0002 6C7.79111 6 6.00024 7.79086 6.00024 10C6.00024 12.2091 7.79111 14 10.0002 14Z" fill="#003594"/>
</svg>
