<svg width="20" height="14" viewBox="0 0 20 14" fill="none" xmlns="http://www.w3.org/2000/svg">
<path d="M10 4C8.358 4 7 5.359 7 7C7 8.642 8.358 10 10 10C11.641 10 13 8.642 13 7C13 5.359 11.641 4 10 4Z" fill="#003594"/>
<path d="M10 0C2.408 0 0.126318 6.617 0.105431 6.684L0 7L0.104436 7.316C0.126318 7.383 2.408 14 10 14C17.592 14 19.8737 7.383 19.8946 7.316L20 7L19.8956 6.684C19.8737 6.617 17.592 0 10 0ZM10 12C4.67774 12 2.61587 8.154 2.11657 7C2.61786 5.842 4.68072 2 10 2C15.3223 2 17.3841 5.846 17.8834 7C17.3821 8.158 15.3193 12 10 12Z" fill="#003594"/>
</svg>
